# xmcd CD database file
#
# Track frame offsets:
#	150
#	19705
#	39117
#	61421
#	92183
#	109544
#	126774
#	141472
#	155512
#	174603
#
# Disc length: 2562 seconds
#
# Revision: 0
# Processed by: cddbd v1.5.1PL0 Copyright (c) Steve Scherf et al.
# Submitted via: CDex 1.51
#
DISCID=800a000a
DTITLE=Chris Rea - Dancing Down The Stony Road, Lim. Edition
DYEAR=2002
DGENRE=Blues
TTITLE0=Chris Rea - Dancing Down the Stony Road CD2 - 01 - Ride On
TTITLE1=Chris Rea - Dancing Down the Stony Road CD2 - 02 - When the Good Lord Talked To Jesus
TTITLE2=Chris Rea - Dancing Down the Stony Road CD2 - 03 - Qualified
TTITLE3=Chris Rea - Dancing Down the Stony Road CD2 - 04 - Sun Is Rising
TTITLE4=Chris Rea - Dancing Down the Stony Road CD2 - 05 - Someday My Peace Will Come
TTITLE5=Chris Rea - Dancing Down the Stony Road CD2 - 06 - Got To Be Moving On
TTITLE6=Chris Rea - Dancing Down the Stony Road CD2 - 07 - Ain't Going Down This Way
TTITLE7=Chris Rea - Dancing Down the Stony Road CD2 - 08 - Changing Times
TTITLE8=Chris Rea - Dancing Down the Stony Road CD2 - 09 - The Hustler
TTITLE9=Chris Rea - Dancing Down the Stony Road CD2 - 10 - Give That Girl A Diamond
EXTD=YEAR: 2002
EXTT0=
EXTT1=
EXTT2=
EXTT3=
EXTT4=
EXTT5=
EXTT6=
EXTT7=
EXTT8=
EXTT9=
PLAYORDER=
